<?xml version="1.0" encoding="UTF-8"?>
<svg width="311px" height="206px" viewBox="0 0 311 206" version="1.1" xmlns="http://www.w3.org/2000/svg" xmlns:xlink="http://www.w3.org/1999/xlink">
    <!-- Generator: Sketch 49.3 (51167) - http://www.bohemiancoding.com/sketch -->
    <title>Group 13</title>
    <desc>Created with Sketch.</desc>
    <defs></defs>
    <g id="Page-1" stroke="none" stroke-width="1" fill="none" fill-rule="evenodd">
        <g id="Home_v3" transform="translate(-315.000000, -5770.000000)">
            <g id="investiment" transform="translate(309.000000, 5619.000000)">
                <g id="Group-59" transform="translate(6.000000, 0.000000)">
                    <g id="Group-58">
                        <g id="Group-16" transform="translate(0.000000, 151.000000)">
                            <g id="Group-13">
                                <g id="Group-14">
                                    <g id="Group-64">
                                        <g id="Group-15" transform="translate(84.000000, 0.000000)">
                                            <path d="M162.751404,90.1651604 L48.8523935,132.407292 C46.5746285,133.251688 44.0982211,131.778963 43.7530802,129.373263 L32.1978922,48.7533509 C31.6880436,45.1977832 33.7282655,41.7688747 37.0944248,40.5204938 L143.680088,0.991189744 C148.235618,-0.699257143 153.188433,2.24784908 153.877887,7.05924835 L165.19967,86.0491458 C165.454595,87.8265158 164.434897,89.54097 162.751404,90.1651604" id="Fill-2" fill="#6A7D88"></path>
                                            <path d="M154.782703,83.667619 L52.8634781,121.46674 C50.9697548,122.169575 48.9104963,120.944374 48.6241204,118.944315 L38.6555877,49.3934359 C38.4437026,47.9165714 39.2912431,46.491033 40.6908436,45.971978 L142.610068,8.17285714 C144.503791,7.47002198 146.56305,8.69522344 146.849426,10.6952821 L156.817958,80.2461612 C157.029844,81.7230256 156.182303,83.1485641 154.782703,83.667619" id="Fill-4" fill="#FFFFFF"></path>
                                            <path d="M149.653841,74.0553341 L53.3288804,109.779891 C52.9498047,109.920623 52.5367943,109.674755 52.4788569,109.274081 L44.0713217,50.613422 C44.0291102,50.3170557 44.1987838,50.0314513 44.4793661,49.9271436 L140.804327,14.2034147 C141.18423,14.0626821 141.596413,14.3077223 141.65435,14.7092242 L150.061886,73.3690557 C150.104097,73.665422 149.934423,73.9510264 149.653841,74.0553341" id="Fill-6" fill="#E5EEEC"></path>
                                            <path d="M162.722435,90.1758396 L48.8523935,132.40721 C47.5198347,132.901429 46.0233961,132.613341 44.9689366,131.659671 L2.11517154,92.8787333 C-0.00699033943,90.9589751 0.664255091,87.4712901 3.34758146,86.4762278 L117.217623,44.2448579 C118.550182,43.7506381 120.046621,44.038726 121.10108,44.9923963 L163.954845,83.7733341 C166.077007,85.6930923 165.405762,89.1807773 162.722435,90.1758396" id="Fill-8" fill="#A2B6BD"></path>
                                        </g>
                                        <path d="M64.1143674,31.15183 L63.1037747,29.4961524 C62.407699,28.3570462 60.9211924,27.9969363 59.7823099,28.6931487 L24.6880097,50.1283795 C23.5491272,50.8237641 23.189088,52.3113905 23.8851637,53.4504967 L42.4325606,83.8139692 C43.1286363,84.9530755 44.6151428,85.3131853 45.7540253,84.6169729 L80.8491533,63.1817421 C81.9872081,62.4863575 82.3472473,60.9987311 81.6519992,59.8596249 L64.1143674,31.15183 Z" id="Fill-30" fill="#4355AB"></path>
                                        <path d="M51.2299313,51.9274388 C52.7048504,54.3430725 51.9425606,57.4979663 49.5274013,58.9731751 C47.112242,60.4483839 43.9579679,59.6859443 42.4830488,57.2694828 C41.0081298,54.8538491 41.7704196,51.6997832 44.1855789,50.2245744 C46.6015658,48.7493656 49.7550123,49.5118051 51.2299313,51.9274388" id="Fill-32" fill="#FFFFFF"></path>
                                        <path d="M60.3948731,45.6431487 C61.4874057,47.4329363 60.9229305,49.7699253 59.1334945,50.8626725 C57.3440585,51.9554198 55.0075285,51.3908337 53.9149958,49.6010462 C52.8224632,47.8112586 53.3869384,45.4742696 55.1763744,44.3815223 C56.9658104,43.2887751 59.3023405,43.8533612 60.3948731,45.6431487" id="Fill-34" fill="#03A9F4"></path>
                                        <g id="Icon" transform="translate(215.000000, 113.000000)">
                                            <path d="M59.6752914,40.5032564 L5.19764125,40.5032564 C2.73033838,40.5032564 0.730672585,38.5031978 0.730672585,36.0354103 L0.730672585,4.49475092 C0.730672585,2.02696337 2.73033838,0.0269047619 5.19764125,0.0269047619 L59.6752914,0.0269047619 C62.1417666,0.0269047619 64.1422601,2.02696337 64.1422601,4.49475092 L64.1422601,36.0354103 C64.1422601,38.5031978 62.1417666,40.5032564 59.6752914,40.5032564" id="Fill-3" fill="#CAD8D5"></path>
                                            <polygon id="Fill-5" fill="#F9F9F9" points="8.43567624 23.5520147 56.4375875 23.5520147 56.4375875 13.6469231 8.43567624 13.6469231"></polygon>
                                            <path d="M91.1490875,59.200907 L36.6714373,59.200907 C34.2041345,59.200907 32.2044687,57.2008484 32.2044687,54.7330608 L32.2044687,23.1924015 C32.2044687,20.7246139 34.2041345,18.7245553 36.6714373,18.7245553 L91.1490875,18.7245553 C93.6155627,18.7245553 95.6160561,20.7246139 95.6160561,23.1924015 L95.6160561,54.7330608 C95.6160561,57.2008484 93.6155627,59.200907 91.1490875,59.200907" id="Fill-7" fill="#E5EEEC"></path>
                                            <polygon id="Fill-8" fill="#CAD8D5" points="39.2426136 45.0493333 57.4399034 45.0493333 57.4399034 43.1370256 39.2426136 43.1370256"></polygon>
                                            <polygon id="Fill-9" fill="#F9F9F9" points="8.43484856 9.0292381 18.2618486 9.0292381 18.2618486 7.1169304 8.43484856 7.1169304"></polygon>
                                            <polygon id="Fill-10" fill="#F9F9F9" points="21.1603708 9.0292381 30.9873708 9.0292381 30.9873708 7.1169304 21.1603708 7.1169304"></polygon>
                                            <polygon id="Fill-11" fill="#F9F9F9" points="33.8850653 9.0292381 43.7120653 9.0292381 43.7120653 7.1169304 33.8850653 7.1169304"></polygon>
                                            <polygon id="Fill-12" fill="#F9F9F9" points="46.6105875 9.0292381 56.4375875 9.0292381 56.4375875 7.1169304 46.6105875 7.1169304"></polygon>
                                            <polygon id="Fill-13" fill="#CAD8D5" points="39.2434413 50.5114139 47.5375849 50.5114139 47.5375849 48.5991062 39.2434413 48.5991062"></polygon>
                                            <path d="M71.7705381,54.6855429 C67.4293762,54.6855429 63.9100969,51.1664 63.9100969,46.8243853 C63.9100969,42.4823707 67.4293762,38.9632278 71.7705381,38.9632278 C76.1108723,38.9632278 79.6301517,42.4823707 79.6301517,46.8243853 C79.6301517,51.1664 76.1108723,54.6855429 71.7705381,54.6855429 Z" id="Fill-14" fill="#EF5350"></path>
                                            <path d="M89.4020285,46.8243853 C89.4020285,51.1664 85.8827491,54.6855429 81.5424149,54.6855429 C77.201253,54.6855429 73.6819736,51.1664 73.6819736,46.8243853 C73.6819736,42.4823707 77.201253,38.9632278 81.5424149,38.9632278 C85.8827491,38.9632278 89.4020285,42.4823707 89.4020285,46.8243853" id="Fill-15" fill="#FFC107"></path>
                                            <polygon id="Fill-16" fill="#FFFFFF" points="32.2048825 34.1293114 95.6156423 34.1293114 95.6156423 27.0703297 32.2048825 27.0703297"></polygon>
                                        </g>
                                        <path d="M69.2060661,56.7779949 C70.0544342,56.2597678 70.3159799,55.1454967 69.7870948,54.3027568 C69.7531601,54.2489473 69.7258467,54.2050718 69.7076379,54.1752696 C67.6069956,50.7347714 63.1151966,49.6486469 59.6753742,51.7505297 C56.2355517,53.8515846 55.1496405,58.3434381 57.2502828,61.7847641 C57.267664,61.8129106 57.2916666,61.8534747 57.3222906,61.9048007 C57.8271731,62.7657531 58.942053,63.0472183 59.7937319,62.5273355 L69.2060661,56.7779949 Z" id="Fill-36" fill="#03A9F4"></path>
                                        <path d="M63.1236389,66.9577634 C64.2691428,66.2582396 64.6217329,64.7540564 63.908276,63.6174337 C63.8619261,63.543756 63.8255084,63.4849795 63.8006781,63.4452432 C60.9650593,58.8002396 54.9023308,57.3349648 50.2582394,60.1711407 C45.6149757,63.0073165 44.1499888,69.0712359 46.9856076,73.7154117 C47.0087825,73.7534923 47.0418896,73.8089575 47.081618,73.8776681 C47.7636232,75.0399538 49.2683386,75.4199319 50.4179809,74.7179245 L63.1236389,66.9577634 Z" id="Fill-38" fill="#FFFFFF"></path>
                                        <path d="M35.6234337,50.6081121 L30.2253292,53.9053941 C29.7974206,54.1661634 29.2387392,54.0312256 28.9780211,53.603233 C28.7164755,53.1752403 28.8513867,52.6164491 29.2792953,52.3556799 L34.6773997,49.0583978 C35.1053084,48.7976286 35.6639898,48.9325663 35.9247078,49.360559 C36.1862535,49.7877238 36.0513423,50.346515 35.6234337,50.6081121" id="Fill-40" fill="#03A9F4"></path>
                                        <path d="M34.8152906,55.1373011 L31.8455883,56.951096 C31.5145178,57.1539165 31.0816431,57.048781 30.8788624,56.7176454 L30.6661496,56.3682974 C30.4633689,56.0371619 30.5684838,55.6042022 30.8995543,55.4013817 L33.8692567,53.5875868 C34.2003272,53.3855941 34.6332018,53.4899018 34.8359825,53.8218652 L35.0486953,54.1703853 C35.251476,54.5023487 35.1463611,54.9344806 34.8152906,55.1373011" id="Fill-42" fill="#03A9F4"></path>
                                        <path d="M68.0711564,146.534019 L16.6575637,163.022913 L16.0988822,161.28114 C15.7148405,160.084913 16.3744984,158.803418 17.5704906,158.420129 L64.6520258,143.320349 C65.848018,142.936232 67.1292608,143.595191 67.5124749,144.792246 L68.0711564,146.534019 Z" id="Fill-44" fill="#6A7D88"></path>
                                        <path d="M76.1425723,179.163038 L29.0618648,194.262818 C27.8650449,194.646108 26.5838021,193.987148 26.200588,192.790921 L16.5523661,162.697324 L67.9667864,146.207602 L77.6141807,176.301199 C77.9982225,177.498254 77.3393922,178.778921 76.1425723,179.163038" id="Fill-46" fill="#E5EEEC"></path>
                                        <path d="M46.4943817,172.359445 L42.9527551,161.312763 C36.8420214,163.273086 33.4692407,169.803078 35.3977264,175.918324 C35.4002094,175.92743 35.4026924,175.936536 35.4051755,175.945642 C35.4084862,175.954749 35.4101415,175.963855 35.4134522,175.972961 C37.3998752,182.069166 43.9418282,185.420258 50.0533896,183.459936 C56.1823321,181.493818 59.5584235,174.930712 57.5926924,168.799738 L46.4943817,172.359445 Z" id="Fill-48" fill="#03A9F4"></path>
                                        <path d="M59.4654755,165.246405 C57.4997444,159.115431 50.9379272,155.739504 44.8081569,157.705621 L48.3671648,168.806112 L59.4654755,165.246405 Z" id="Fill-50" fill="#FF5722"></path>
                                        <path d="M59.3073065,17.0616821 C59.1839828,17.1651619 59.0316903,17.2380117 58.8603614,17.2653304 C58.3529958,17.3472864 57.8754266,17.0020777 57.7943144,16.4946125 L55.2475546,3.33197509 C55.1656146,2.82616557 55.5091003,2.3493304 56.0172935,2.26654652 C56.524659,2.18459048 57.0022282,2.52979927 57.0841681,3.03726447 L59.6301003,16.199074 C59.6847269,16.5351766 59.5506433,16.8580337 59.3073065,17.0616821" id="Fill-52" fill="#03A9F4"></path>
                                        <path d="M67.4312799,19.0571048 C67.2707107,19.0496542 67.1093138,18.9999839 66.9644705,18.9047824 C66.5357342,18.6208337 66.4182042,18.04383 66.7012695,17.6150095 L73.8267342,6.08900952 C74.1089718,5.66184469 74.6850345,5.5426359 75.1145984,5.82575678 C75.5441624,6.10970549 75.6616924,6.68670916 75.3777995,7.11552967 L68.2523347,18.6415297 C68.0652799,18.9246505 67.7482799,19.0720059 67.4312799,19.0571048" id="Fill-54" fill="#03A9F4"></path>
                                        <path d="M72.4122355,25.1177956 C72.3120867,24.9919641 72.2425619,24.8379861 72.2193869,24.6657956 C72.1498621,24.1566747 72.5057629,23.6872901 73.0147838,23.6177516 L85.3993034,21.833759 C85.9074966,21.7642205 86.3759614,22.1185355 86.4463138,22.6293121 C86.5158386,23.138433 86.1607655,23.6078176 85.650917,23.677356 L73.2663974,25.4613487 C72.9295332,25.5077077 72.6100501,25.3661473 72.4122355,25.1177956" id="Fill-56" fill="#03A9F4"></path>
                                        <polygon id="Fill-58" fill="#00BCD4" points="258.955065 194.410256 262.648157 205.977648 250.785901 203.393136"></polygon>
                                        <polygon id="Fill-60" fill="#FF5722" points="8.83221593 142.310634 0.297218538 133.675447 12.0419444 130.600026"></polygon>
                                        <polygon id="Fill-62" fill="#00BCD4" points="278.938067 71.6248703 291.044487 70.7200425 285.774672 81.6591048"></polygon>
                                    </g>
                                </g>
                                <path d="M122.313173,184.312 C122.034262,183.702354 121.577407,183.279456 120.942609,183.042316 C120.306811,182.804189 119.68201,182.82395 119.065207,183.099625 C118.449402,183.374311 118.020539,183.826852 117.780615,184.453296 C117.540692,185.080727 117.559686,185.700254 117.838597,186.308912 C118.117508,186.918558 118.572363,187.341456 119.209161,187.579584 C119.842959,187.815735 120.46976,187.796962 121.086563,187.522275 C121.701368,187.246601 122.129232,186.79406 122.369155,186.166628 C122.609079,185.540185 122.590085,184.920658 122.313173,184.312 Z M122.436134,190.479602 C120.991594,191.12383 119.529059,191.17027 118.04753,190.616945 C116.566002,190.063619 115.498341,189.072574 114.845549,187.644797 C114.193757,186.21702 114.147771,184.77047 114.707593,183.306134 C115.270414,181.831917 116.274095,180.775658 117.716636,180.135382 C119.159177,179.495106 120.622711,179.45163 122.10424,180.003967 C123.585768,180.557293 124.651429,181.54735 125.304221,182.975127 C125.957014,184.402904 126.003999,185.850442 125.444177,187.314778 C124.884355,188.780102 123.880674,189.834385 122.436134,190.479602 Z M123.815695,168.66475 L126,169.479917 L106.234289,186.352387 L104,185.517459 L123.815695,168.66475 Z M111.027764,171.898739 C111.643568,171.625041 112.072431,171.173488 112.311355,170.546056 C112.552279,169.917637 112.532285,169.300086 112.254374,168.69044 C111.975462,168.080794 111.519607,167.657896 110.88381,167.420756 C110.249012,167.183617 109.623211,167.20239 109.006407,167.478065 C108.391603,167.75374 107.963739,168.204304 107.722815,168.832724 C107.483891,169.460155 107.502885,170.078694 107.779797,170.686364 C108.058709,171.29601 108.515563,171.718908 109.150361,171.956048 C109.786159,172.193187 110.41096,172.174414 111.027764,171.898739 Z M112.385332,174.85903 C110.94479,175.507211 109.479257,175.552663 107.988731,174.995385 C106.507202,174.44206 105.440542,173.452002 104.788749,172.022249 C104.134957,170.594472 104.087972,169.14891 104.647794,167.684574 C105.207616,166.220238 106.210297,165.164967 107.656836,164.520739 C109.101377,163.875522 110.562912,163.83007 112.04444,164.383395 C113.525969,164.936721 114.594629,165.926778 115.246422,167.354555 C115.899214,168.782332 115.945199,170.22987 115.385377,171.694206 C114.825556,173.158542 113.826873,174.212825 112.385332,174.85903 Z" id="Fill-15" fill="#00BCD4"></path>
                            </g>
                        </g>
                    </g>
                </g>
            </g>
        </g>
    </g>
</svg>